<svg width="251" height="238" viewBox="0 0 251 238" fill="none" xmlns="http://www.w3.org/2000/svg">
<g clip-path="url(#clip0_34:1657)">
<path d="M249.805 57.7794C246.343 69.7537 236.233 78.1358 225.688 85.2563C224.215 86.2507 222.742 87.2223 221.269 88.171C221.259 88.1753 221.248 88.1846 221.238 88.189C221.167 88.2344 221.096 88.2799 221.03 88.3256C220.726 88.521 220.422 88.7166 220.121 88.9097L220.286 88.9839C220.286 88.9839 220.449 89.0702 220.271 88.9978C220.218 88.9757 220.162 88.9558 220.11 88.9336C213.983 86.4704 207.748 83.8256 203.053 79.2112C198.183 74.4194 195.336 66.9037 197.974 60.6087C198.32 59.7841 198.758 59.0006 199.279 58.2728C199.493 57.9677 199.723 57.6756 199.963 57.389C201.418 55.619 203.319 54.2672 205.472 53.4726C207.624 52.6781 209.95 52.4694 212.211 52.868C214.471 53.2667 216.584 54.2583 218.332 55.7409C220.08 57.2234 221.401 59.1435 222.158 61.3036C222.933 54.1123 216.985 48.0884 211.261 43.6437C205.534 39.2013 199.026 34.3634 197.919 27.2119C197.301 23.233 198.689 19.377 201.217 16.2815C201.296 16.1875 201.374 16.0935 201.454 16.0021C204.532 12.3968 208.861 10.0816 213.576 9.51915C222.357 8.60933 230.887 13.2431 237.267 19.3297C247.534 29.1227 253.742 44.1647 249.805 57.7794Z" fill="#ECEDEE"/>
<path d="M233.3 42.1171C234.985 44.731 236.279 47.576 237.141 50.5622C237.87 53.2313 238.194 55.9939 238.103 58.7586C237.945 64.4413 236.191 69.9943 233.432 74.9403C231.297 78.6904 228.695 82.1566 225.688 85.2562C224.215 86.2507 222.742 87.2222 221.269 88.1709C221.259 88.1752 221.249 88.1845 221.239 88.189C221.168 88.2344 221.097 88.2798 221.031 88.3255C220.727 88.5209 220.422 88.7165 220.121 88.9096C220.121 88.9096 220.449 89.0701 220.271 88.9977C220.218 88.9756 220.163 88.9557 220.11 88.9335C220.659 84.4457 220.121 79.892 218.541 75.6541C216.961 71.4162 214.386 67.6175 211.03 64.5764C207.666 61.5815 203.64 59.4216 199.279 58.2728C199.493 57.9676 199.724 57.6755 199.963 57.3889C201.648 57.8597 203.287 58.478 204.861 59.2365C210.491 61.9315 215.1 66.3617 218.007 71.8715C220.616 76.8746 221.739 82.5159 221.244 88.1329C221.496 87.9055 221.748 87.6732 221.992 87.4431C226.647 83.1162 230.782 78.1497 233.581 72.4179C236.009 67.5639 237.202 62.1892 237.055 56.7672C236.827 50.8552 234.464 45.3791 231.043 40.6118C227.378 35.5097 222.784 30.9957 217.877 27.0853C212.852 23.0727 207.353 19.6883 201.503 17.0075C201.371 16.9461 201.268 16.8365 201.215 16.7014C201.162 16.5662 201.163 16.4159 201.217 16.2815C201.256 16.1608 201.342 16.0604 201.455 16.002C201.513 15.977 201.576 15.9655 201.639 15.9682C201.702 15.9708 201.764 15.9877 201.819 16.0175C202.542 16.3489 203.259 16.685 203.97 17.0355C209.897 19.9556 215.436 23.5983 220.461 27.8799C225.315 32.0055 229.885 36.719 233.3 42.1171Z" fill="white"/>
<path d="M193.3 126.342C200.393 126.342 206.142 120.611 206.142 113.54C206.142 106.47 200.393 100.738 193.3 100.738C186.208 100.738 180.458 106.47 180.458 113.54C180.458 120.611 186.208 126.342 193.3 126.342Z" fill="#4E4E59"/>
<path d="M183.276 106.638C185.351 104.569 185.772 101.634 184.215 100.082C182.659 98.5306 179.715 98.9499 177.639 101.019C175.564 103.088 175.144 106.022 176.7 107.574C178.256 109.126 181.2 108.706 183.276 106.638Z" fill="#4E4E59"/>
<path d="M206.685 102.572C207.55 100.554 206.063 97.9863 203.364 96.837C200.665 95.6877 197.776 96.3918 196.911 98.4097C196.047 100.428 197.534 102.995 200.233 104.144C202.931 105.294 205.82 104.59 206.685 102.572Z" fill="#4E4E59"/>
<path d="M220.497 168.509C218.29 170.037 215.958 171.378 213.526 172.516L213.167 171.882L209.725 165.86L209.423 165.331L207.663 162.251L207.659 162.247L202.1 152.511L199.243 147.513L207.728 141.581L211.028 148.537L212.818 152.316L220.185 167.847L220.497 168.509Z" fill="#FFD5C8"/>
<path d="M212.916 145.019L211.852 143.357L207.147 135.999C206.504 134.57 205.32 133.452 203.852 132.892C202.385 132.331 200.755 132.373 199.318 133.008C197.882 133.644 196.757 134.821 196.19 136.282C195.622 137.743 195.659 139.368 196.291 140.802L199.2 151.132C199.282 151.424 199.425 151.696 199.621 151.928C199.817 152.16 200.061 152.348 200.336 152.479C200.61 152.609 200.91 152.68 201.214 152.685C201.519 152.691 201.821 152.631 202.1 152.511C202.111 152.507 202.119 152.504 202.129 152.5L211.028 148.537L211.987 148.11C212.266 147.984 212.516 147.8 212.718 147.57C212.92 147.34 213.071 147.069 213.159 146.776C213.247 146.483 213.271 146.174 213.229 145.871C213.187 145.568 213.08 145.277 212.916 145.019H212.916Z" fill="#FC801B"/>
<path d="M187.349 145.251L184.873 150.825L184.335 152.037L175.168 172.682L174.874 173.345C172.391 172.313 170.001 171.073 167.729 169.638L167.975 168.943L175.458 147.897L177.295 142.728L181.318 143.738L187.349 145.251Z" fill="#FFD5C8"/>
<path d="M203.271 121.808C206.158 116.543 204.217 109.941 198.935 107.063C193.653 104.184 187.031 106.119 184.144 111.385C181.257 116.65 183.198 123.252 188.479 126.13C193.761 129.008 200.383 127.073 203.271 121.808Z" fill="#FFD5C8"/>
<path d="M212.705 147.585C212.548 146.154 212.262 144.739 211.852 143.358C210.616 139.2 208.253 135.462 205.023 132.557C203.836 131.496 202.297 130.909 200.702 130.911H185.348C184.245 130.908 183.159 131.187 182.194 131.721C181.23 132.256 180.419 133.028 179.839 133.964C179.259 134.9 178.929 135.968 178.881 137.067C178.833 138.166 179.068 139.259 179.565 140.242L181.318 143.738L184.873 150.825L185.726 152.522L189.527 160.105L189.829 160.706L209.125 165.997L209.209 165.813C209.282 165.65 209.354 165.491 209.423 165.331C209.528 165.089 209.634 164.853 209.732 164.615C211.678 160.014 212.596 155.921 212.818 152.316C212.917 150.739 212.88 149.156 212.705 147.585Z" fill="#FC801B"/>
<path d="M188.133 132.894C186.713 132.23 185.087 132.155 183.611 132.684C182.135 133.213 180.93 134.304 180.258 135.717L178.89 137.776L174.315 144.66C174.145 144.916 174.033 145.205 173.985 145.508C173.937 145.81 173.955 146.12 174.039 146.415C174.122 146.71 174.267 146.983 174.466 147.217C174.665 147.451 174.912 147.639 175.19 147.77L175.459 147.896L184.336 152.037L184.967 152.33C185.205 152.442 185.463 152.507 185.726 152.522C186.077 152.55 186.429 152.489 186.75 152.345C187.03 152.22 187.28 152.036 187.482 151.806C187.684 151.576 187.835 151.306 187.923 151.013L190.994 140.766C191.66 139.344 191.733 137.716 191.197 136.24C190.661 134.764 189.559 133.561 188.133 132.894Z" fill="#FC801B"/>
<path d="M209.732 164.615C209.667 164.389 209.563 164.177 209.423 163.988C208.927 163.325 208.333 162.739 207.663 162.251L207.659 162.247C205.325 160.485 200.677 158.425 191.713 158.371H191.699C191.288 158.371 190.885 158.488 190.54 158.71C190.194 158.931 189.919 159.247 189.749 159.62L189.527 160.105L188.101 163.232C187.98 163.501 187.788 163.733 187.545 163.902C186.256 164.81 182.154 168.104 180.033 174.394C179.957 174.619 179.884 174.847 179.815 175.082C188.881 177.722 198.527 177.635 207.543 174.832L207.742 174.011L209.725 165.86L209.758 165.726C209.847 165.36 209.839 164.976 209.732 164.615Z" fill="#4E4E59"/>
<path d="M182.255 109.762C184.745 111.473 187.702 112.384 190.726 112.372C189.647 113.118 188.419 113.622 187.126 113.849C191.148 114.709 195.304 114.732 199.335 113.917C200.231 113.774 201.096 113.478 201.891 113.042C202.287 112.821 202.633 112.52 202.905 112.158C203.176 111.795 203.369 111.38 203.469 110.939C203.737 109.413 202.544 108.027 201.305 107.093C199.408 105.685 197.22 104.714 194.901 104.252C192.581 103.79 190.187 103.848 187.893 104.421C186.395 104.807 184.894 105.46 183.921 106.659C182.948 107.858 182.659 109.708 183.587 110.943L182.255 109.762Z" fill="#4E4E59"/>
<path d="M197.291 11.0317H0.394531V11.8185H197.291V11.0317Z" fill="#E9D6C7"/>
<path d="M7.10186 8.2623C8.40939 8.2623 9.46935 7.20563 9.46935 5.90215C9.46935 4.59867 8.40939 3.54199 7.10186 3.54199C5.79433 3.54199 4.73438 4.59867 4.73438 5.90215C4.73438 7.20563 5.79433 8.2623 7.10186 8.2623Z" fill="#E9D6C7"/>
<path d="M13.9085 8.2623C15.216 8.2623 16.276 7.20563 16.276 5.90215C16.276 4.59867 15.216 3.54199 13.9085 3.54199C12.601 3.54199 11.541 4.59867 11.541 5.90215C11.541 7.20563 12.601 8.2623 13.9085 8.2623Z" fill="#E9D6C7"/>
<path d="M20.7151 8.2623C22.0227 8.2623 23.0826 7.20563 23.0826 5.90215C23.0826 4.59867 22.0227 3.54199 20.7151 3.54199C19.4076 3.54199 18.3477 4.59867 18.3477 5.90215C18.3477 7.20563 19.4076 8.2623 20.7151 8.2623Z" fill="#E9D6C7"/>
<path d="M154.648 56.6877H42.8969C42.5643 56.6877 42.235 56.6224 41.9277 56.4955C41.6204 56.3686 41.3412 56.1827 41.106 55.9482C40.8709 55.7138 40.6843 55.4354 40.557 55.1291C40.4298 54.8228 40.3643 54.4945 40.3643 54.1629C40.3643 53.8314 40.4298 53.5031 40.557 53.1968C40.6843 52.8904 40.8709 52.6121 41.106 52.3777C41.3412 52.1432 41.6204 51.9572 41.9277 51.8304C42.235 51.7035 42.5643 51.6382 42.8969 51.6382H154.648C154.981 51.6382 155.31 51.7035 155.617 51.8304C155.924 51.9572 156.204 52.1432 156.439 52.3777C156.674 52.6121 156.86 52.8904 156.988 53.1968C157.115 53.5031 157.181 53.8314 157.181 54.1629C157.181 54.4945 157.115 54.8228 156.988 55.1291C156.86 55.4354 156.674 55.7138 156.439 55.9482C156.204 56.1827 155.924 56.3686 155.617 56.4955C155.31 56.6224 154.981 56.6877 154.648 56.6877Z" fill="#CCCCCC"/>
<path d="M154.648 83.8293H42.8969C42.5643 83.8293 42.235 83.764 41.9277 83.6371C41.6204 83.5102 41.3412 83.3243 41.106 83.0898C40.8709 82.8554 40.6843 82.577 40.557 82.2707C40.4298 81.9644 40.3643 81.6361 40.3643 81.3045C40.3643 80.973 40.4298 80.6447 40.557 80.3384C40.6843 80.032 40.8709 79.7537 41.106 79.5193C41.3412 79.2848 41.6204 79.0988 41.9277 78.972C42.235 78.8451 42.5643 78.7798 42.8969 78.7798H154.648C154.981 78.7798 155.31 78.8451 155.617 78.972C155.924 79.0988 156.204 79.2848 156.439 79.5193C156.674 79.7537 156.86 80.032 156.988 80.3384C157.115 80.6447 157.181 80.973 157.181 81.3045C157.181 81.6361 157.115 81.9644 156.988 82.2707C156.86 82.577 156.674 82.8554 156.439 83.0898C156.204 83.3243 155.924 83.5102 155.617 83.6371C155.31 83.764 154.981 83.8293 154.648 83.8293Z" fill="#FFE8D6"/>
<path d="M154.648 94.2439H42.8969C42.2252 94.2439 41.581 93.9779 41.106 93.5044C40.6311 93.0309 40.3643 92.3887 40.3643 91.7191C40.3643 91.0495 40.6311 90.4073 41.106 89.9338C41.581 89.4603 42.2252 89.1943 42.8969 89.1943H154.648C155.32 89.1943 155.964 89.4603 156.439 89.9338C156.914 90.4073 157.181 91.0495 157.181 91.7191C157.181 92.3887 156.914 93.0309 156.439 93.5044C155.964 93.9779 155.32 94.2439 154.648 94.2439Z" fill="#FFE8D6"/>
<path d="M136.445 45.9577H61.1C60.4283 45.9577 59.7841 45.6917 59.3092 45.2182C58.8342 44.7448 58.5674 44.1026 58.5674 43.433C58.5674 42.7634 58.8342 42.1212 59.3092 41.6477C59.7841 41.1742 60.4283 40.9082 61.1 40.9082H136.445C137.117 40.9082 137.761 41.1742 138.236 41.6477C138.711 42.1212 138.977 42.7634 138.977 43.433C138.977 44.1026 138.711 44.7448 138.236 45.2182C137.761 45.6917 137.117 45.9577 136.445 45.9577Z" fill="#CCCCCC"/>
<path d="M82.2949 73.4143H43.0395C42.7067 73.4147 42.3771 73.3496 42.0694 73.2229C41.7618 73.0962 41.4823 72.9103 41.2468 72.6758C41.0113 72.4414 40.8244 72.1629 40.697 71.8564C40.5695 71.5499 40.5039 71.2213 40.5039 70.8895C40.5039 70.5577 40.5695 70.2291 40.697 69.9226C40.8244 69.6161 41.0113 69.3376 41.2468 69.1032C41.4823 68.8687 41.7618 68.6828 42.0694 68.5561C42.3771 68.4294 42.7067 68.3644 43.0395 68.3647H82.2949C82.9666 68.3647 83.6107 68.6308 84.0857 69.1042C84.5607 69.5777 84.8275 70.2199 84.8275 70.8895C84.8275 71.5591 84.5607 72.2013 84.0857 72.6748C83.6107 73.1483 82.9666 73.4143 82.2949 73.4143Z" fill="#FFE8D6"/>
<path d="M154.79 73.4143H115.535C115.202 73.4147 114.872 73.3496 114.565 73.2229C114.257 73.0962 113.977 72.9103 113.742 72.6758C113.506 72.4414 113.32 72.1629 113.192 71.8564C113.065 71.5499 112.999 71.2213 112.999 70.8895C112.999 70.5577 113.065 70.2291 113.192 69.9226C113.32 69.6161 113.506 69.3376 113.742 69.1032C113.977 68.8687 114.257 68.6828 114.565 68.5561C114.872 68.4294 115.202 68.3644 115.535 68.3647H154.79C155.123 68.3644 155.453 68.4294 155.76 68.5561C156.068 68.6828 156.347 68.8687 156.583 69.1032C156.818 69.3376 157.005 69.6161 157.133 69.9226C157.26 70.2291 157.326 70.5577 157.326 70.8895C157.326 71.2213 157.26 71.5499 157.133 71.8564C157.005 72.1629 156.818 72.4414 156.583 72.6758C156.347 72.9103 156.068 73.0962 155.76 73.2229C155.453 73.3496 155.123 73.4147 154.79 73.4143Z" fill="#FFE8D6"/>
<path d="M194.922 0H2.75933C2.02723 0.00111031 1.32548 0.291775 0.808144 0.808182C0.290807 1.32459 0.000160738 2.02454 0 2.75437V132.565C0.000922308 133.294 0.291931 133.993 0.809207 134.509C1.32648 135.024 2.0278 135.314 2.75933 135.315H146.457C146.421 135.055 146.391 134.79 146.362 134.53H2.75933C2.23661 134.529 1.73543 134.322 1.3658 133.954C0.996178 133.585 0.788304 133.086 0.787823 132.565V2.75437C0.788164 2.23289 0.995875 1.73282 1.36543 1.36374C1.73498 0.994665 2.23623 0.786694 2.75933 0.785411H194.922C195.446 0.785957 195.948 0.993574 196.318 1.36271C196.689 1.73184 196.897 2.23234 196.897 2.75437V82.3126C197.159 82.3307 197.424 82.3524 197.685 82.3778V2.75437C197.685 2.02396 197.394 1.32357 196.876 0.807099C196.358 0.290631 195.655 0.000335669 194.922 0Z" fill="#E9D6C7"/>
<path d="M146.457 135.315C146.421 135.055 146.392 134.791 146.362 134.53C146.355 134.49 146.352 134.454 146.348 134.414C146.243 133.462 146.166 132.501 146.119 131.53C145.92 132.366 145.739 133.205 145.578 134.049C145.589 134.172 145.6 134.291 145.615 134.414C145.618 134.454 145.622 134.49 145.629 134.53C145.658 134.791 145.687 135.055 145.724 135.315C145.825 136.123 145.949 136.919 146.094 137.711C146.097 137.679 146.101 137.65 146.105 137.617C146.206 136.854 146.323 136.094 146.461 135.334C146.458 135.328 146.456 135.322 146.457 135.315ZM197.685 81.6504C197.424 81.6251 197.159 81.6034 196.897 81.5853C196.858 81.5817 196.821 81.5817 196.781 81.578C195.619 81.4912 194.443 81.4478 193.26 81.4478C186.558 81.4498 179.932 82.8524 173.808 85.5651C167.684 88.2777 162.199 92.2401 157.706 97.1965C153.213 102.153 149.813 107.993 147.724 114.341C145.635 120.689 144.904 127.402 145.578 134.049C145.589 134.172 145.6 134.291 145.615 134.414C145.618 134.454 145.622 134.49 145.629 134.53C145.658 134.791 145.687 135.055 145.724 135.315C145.825 136.123 145.949 136.919 146.094 137.711C147.536 145.57 150.924 152.945 155.95 159.167C160.976 165.39 167.481 170.263 174.874 173.345C175.629 173.656 176.392 173.953 177.165 174.224C177.673 174.409 178.182 174.579 178.697 174.742C179.067 174.861 179.441 174.973 179.815 175.082C180.345 175.238 180.883 175.386 181.424 175.523C188.06 177.221 194.985 177.473 201.727 176.262C208.47 175.052 214.871 172.407 220.497 168.509H220.5C226.88 164.118 232.094 158.249 235.697 151.407C239.3 144.564 241.183 136.952 241.184 129.224C241.184 104.366 222.043 83.8836 197.685 81.6504ZM220.185 167.847C217.966 169.391 215.618 170.741 213.166 171.882C211.405 172.704 209.593 173.415 207.742 174.011C199.39 176.69 190.454 176.999 181.936 174.905C181.297 174.749 180.663 174.579 180.033 174.394C179.412 174.213 178.798 174.021 178.189 173.819C177.691 173.649 177.194 173.475 176.7 173.29C176.185 173.095 175.676 172.892 175.168 172.682C167.523 169.506 160.848 164.385 155.81 157.831C150.772 151.277 147.548 143.519 146.461 135.334C146.458 135.328 146.456 135.322 146.457 135.315C146.421 135.055 146.392 134.791 146.362 134.53C146.355 134.49 146.352 134.454 146.348 134.414C146.243 133.462 146.166 132.501 146.119 131.53C146.079 130.766 146.06 129.997 146.061 129.224C146.075 116.749 151.052 104.789 159.9 95.968C168.749 87.1469 180.746 82.1853 193.26 82.1716C194.443 82.1716 195.62 82.2151 196.781 82.3019C196.821 82.3055 196.858 82.3092 196.898 82.3128C197.159 82.3309 197.424 82.3526 197.686 82.3779C221.644 84.6075 240.458 104.764 240.458 129.224C240.457 136.815 238.613 144.293 235.082 151.019C231.552 157.745 226.44 163.518 220.185 167.847ZM176.7 173.29C176.185 173.095 175.676 172.892 175.168 172.682C167.523 169.506 160.848 164.385 155.81 157.831C150.772 151.277 147.548 143.519 146.461 135.334C146.323 136.094 146.206 136.854 146.105 137.617C146.101 137.65 146.097 137.679 146.094 137.711C147.536 145.57 150.924 152.945 155.95 159.167C160.976 165.39 167.481 170.263 174.874 173.345C175.629 173.656 176.392 173.953 177.165 174.224C177.005 173.916 176.849 173.605 176.7 173.29ZM196.781 81.578C195.619 81.4912 194.443 81.4478 193.26 81.4478C186.558 81.4498 179.932 82.8524 173.808 85.5651C167.684 88.2777 162.199 92.2401 157.706 97.1965C153.213 102.153 149.813 107.993 147.724 114.341C145.635 120.689 144.904 127.402 145.578 134.049C145.589 134.172 145.6 134.291 145.615 134.414C145.618 134.454 145.622 134.49 145.629 134.53H146.362C146.355 134.49 146.352 134.454 146.348 134.414C146.243 133.462 146.166 132.501 146.119 131.53C146.079 130.766 146.06 129.997 146.061 129.224C146.075 116.749 151.052 104.789 159.9 95.968C168.749 87.1469 180.746 82.1853 193.26 82.1716C194.443 82.1716 195.619 82.2151 196.781 82.3019C196.821 82.3055 196.858 82.3092 196.897 82.3128V81.5853C196.858 81.5817 196.821 81.5817 196.781 81.578H196.781Z" fill="#E9D6C7"/>
<path d="M232.214 93.6763C246.934 93.9269 246.932 115.755 232.214 116.003C217.494 115.753 217.496 93.9248 232.214 93.6763Z" fill="#FC801B"/>
<path d="M232.215 110.919C232.006 110.918 231.806 110.836 231.658 110.689C231.511 110.541 231.428 110.342 231.428 110.134V105.974C231.428 105.882 231.391 105.793 231.325 105.727C231.259 105.662 231.17 105.625 231.077 105.625H226.904C226.696 105.625 226.495 105.542 226.348 105.395C226.2 105.248 226.117 105.048 226.117 104.84C226.117 104.632 226.2 104.432 226.348 104.285C226.495 104.138 226.696 104.055 226.904 104.055H231.077C231.17 104.055 231.259 104.018 231.325 103.953C231.391 103.887 231.428 103.798 231.428 103.706V99.5457C231.428 99.3377 231.511 99.1381 231.658 98.991C231.806 98.8439 232.006 98.7612 232.215 98.7612C232.423 98.7612 232.623 98.8439 232.771 98.991C232.919 99.1381 233.002 99.3377 233.002 99.5457V103.706C233.002 103.798 233.039 103.887 233.104 103.953C233.17 104.018 233.259 104.055 233.352 104.055H237.525C237.734 104.055 237.934 104.138 238.081 104.285C238.229 104.432 238.312 104.632 238.312 104.84C238.312 105.048 238.229 105.248 238.081 105.395C237.934 105.542 237.734 105.625 237.525 105.625H233.352C233.259 105.625 233.17 105.662 233.104 105.727C233.039 105.793 233.002 105.882 233.002 105.974V110.134C233.001 110.342 232.918 110.541 232.771 110.688C232.623 110.836 232.423 110.918 232.215 110.919Z" fill="white"/>
</g>
<path d="M53.4956 224.416C52.141 224.416 51.4636 224.891 51.4636 225.84C51.4636 226.331 51.6236 226.683 51.9436 226.896C52.2636 227.099 52.9676 227.355 54.0556 227.664C55.1543 227.963 55.9276 228.325 56.3756 228.752C56.8236 229.168 57.0476 229.829 57.0476 230.736C57.0476 231.888 56.717 232.752 56.0556 233.328C55.405 233.893 54.5143 234.176 53.3836 234.176C52.477 234.176 51.4743 234.069 50.3756 233.856L49.7996 233.744L49.9756 232.32C51.4156 232.512 52.5143 232.608 53.2716 232.608C54.5943 232.608 55.2556 232.021 55.2556 230.848C55.2556 230.389 55.1063 230.053 54.8076 229.84C54.509 229.616 53.837 229.376 52.7916 229.12C51.7463 228.853 50.9676 228.491 50.4556 228.032C49.9436 227.573 49.6876 226.848 49.6876 225.856C49.6876 224.864 50.0076 224.117 50.6476 223.616C51.2983 223.104 52.1943 222.848 53.3356 222.848C54.157 222.848 55.1276 222.944 56.2476 223.136L56.8076 223.232L56.6636 224.672C55.1703 224.501 54.1143 224.416 53.4956 224.416ZM62.9538 227.488H60.7458V231.008C60.7458 231.659 60.7938 232.091 60.8898 232.304C60.9858 232.517 61.2311 232.624 61.6258 232.624L62.9378 232.576L63.0178 233.968C62.3031 234.107 61.7591 234.176 61.3858 234.176C60.4791 234.176 59.8551 233.968 59.5138 233.552C59.1831 233.136 59.0178 232.352 59.0178 231.2V227.488H57.9938V226H59.0178V223.68H60.7458V226H62.9538V227.488ZM70.3041 228.464V232.112C70.3148 232.347 70.3735 232.523 70.4801 232.64C70.5975 232.747 70.7735 232.816 71.0081 232.848L70.9601 234.176C70.0428 234.176 69.3335 233.979 68.8321 233.584C67.9788 233.979 67.1201 234.176 66.2561 234.176C64.6668 234.176 63.8721 233.328 63.8721 231.632C63.8721 230.821 64.0855 230.235 64.5121 229.872C64.9495 229.509 65.6161 229.291 66.5121 229.216L68.5761 229.04V228.464C68.5761 228.037 68.4801 227.739 68.2881 227.568C68.1068 227.397 67.8348 227.312 67.4721 227.312C66.7895 227.312 65.9361 227.355 64.9121 227.44L64.4001 227.472L64.3361 226.24C65.4988 225.963 66.5655 225.824 67.5361 225.824C68.5175 225.824 69.2215 226.037 69.6481 226.464C70.0855 226.88 70.3041 227.547 70.3041 228.464ZM66.7201 230.448C65.9841 230.512 65.6161 230.912 65.6161 231.648C65.6161 232.384 65.9415 232.752 66.5921 232.752C67.1255 232.752 67.6908 232.667 68.2881 232.496L68.5761 232.4V230.272L66.7201 230.448ZM72.4935 234V226H74.2215V226.96C75.1282 226.373 76.0348 225.995 76.9415 225.824V227.568C76.0242 227.749 75.2402 227.984 74.5895 228.272L74.2375 228.416V234H72.4935ZM82.5788 227.488H80.3708V231.008C80.3708 231.659 80.4188 232.091 80.5148 232.304C80.6108 232.517 80.8561 232.624 81.2508 232.624L82.5628 232.576L82.6428 233.968C81.9281 234.107 81.3841 234.176 81.0108 234.176C80.1041 234.176 79.4801 233.968 79.1388 233.552C78.8081 233.136 78.6428 232.352 78.6428 231.2V227.488H77.6188V226H78.6428V223.68H80.3708V226H82.5788V227.488ZM91.2528 225.824C92.3514 225.824 93.1408 226.133 93.6208 226.752C94.1114 227.36 94.3568 228.443 94.3568 230C94.3568 231.557 94.0688 232.645 93.4928 233.264C92.9168 233.872 91.9034 234.176 90.4528 234.176C89.9514 234.176 89.1568 234.128 88.0688 234.032L87.5247 233.984V222.672H89.2528V226.304C89.9888 225.984 90.6554 225.824 91.2528 225.824ZM90.4528 232.624C91.3061 232.624 91.8714 232.427 92.1488 232.032C92.4368 231.627 92.5808 230.944 92.5808 229.984C92.5808 229.024 92.4581 228.352 92.2128 227.968C91.9781 227.573 91.5888 227.376 91.0448 227.376C90.5328 227.376 90.0208 227.456 89.5088 227.616L89.2528 227.696V232.56C89.8394 232.603 90.2394 232.624 90.4528 232.624ZM95.2419 226H96.9539L98.6499 232.512H99.0819L100.778 226H102.506L99.4659 237.44H97.7539L98.7139 234H97.3379L95.2419 226ZM113.289 228.464V232.112C113.299 232.347 113.358 232.523 113.465 232.64C113.582 232.747 113.758 232.816 113.993 232.848L113.945 234.176C113.027 234.176 112.318 233.979 111.817 233.584C110.963 233.979 110.105 234.176 109.241 234.176C107.651 234.176 106.857 233.328 106.857 231.632C106.857 230.821 107.07 230.235 107.497 229.872C107.934 229.509 108.601 229.291 109.497 229.216L111.561 229.04V228.464C111.561 228.037 111.465 227.739 111.273 227.568C111.091 227.397 110.819 227.312 110.457 227.312C109.774 227.312 108.921 227.355 107.897 227.44L107.385 227.472L107.321 226.24C108.483 225.963 109.55 225.824 110.521 225.824C111.502 225.824 112.206 226.037 112.633 226.464C113.07 226.88 113.289 227.547 113.289 228.464ZM109.705 230.448C108.969 230.512 108.601 230.912 108.601 231.648C108.601 232.384 108.926 232.752 109.577 232.752C110.11 232.752 110.675 232.667 111.273 232.496L111.561 232.4V230.272L109.705 230.448ZM122.006 222.672V234H120.278V233.584C119.499 233.979 118.785 234.176 118.134 234.176C117.089 234.176 116.321 233.861 115.83 233.232C115.35 232.603 115.11 231.547 115.11 230.064C115.11 228.581 115.377 227.504 115.91 226.832C116.454 226.16 117.297 225.824 118.438 225.824C118.822 225.824 119.43 225.893 120.262 226.032V222.672H122.006ZM119.99 232.336L120.262 232.224V227.488C119.622 227.381 119.03 227.328 118.486 227.328C117.409 227.328 116.87 228.224 116.87 230.016C116.87 230.997 116.993 231.68 117.238 232.064C117.494 232.437 117.894 232.624 118.438 232.624C118.982 232.624 119.499 232.528 119.99 232.336ZM130.647 222.672V234H128.919V233.584C128.14 233.979 127.425 234.176 126.775 234.176C125.729 234.176 124.961 233.861 124.471 233.232C123.991 232.603 123.751 231.547 123.751 230.064C123.751 228.581 124.017 227.504 124.551 226.832C125.095 226.16 125.937 225.824 127.079 225.824C127.463 225.824 128.071 225.893 128.903 226.032V222.672H130.647ZM128.631 232.336L128.903 232.224V227.488C128.263 227.381 127.671 227.328 127.127 227.328C126.049 227.328 125.511 228.224 125.511 230.016C125.511 230.997 125.633 231.68 125.879 232.064C126.135 232.437 126.535 232.624 127.079 232.624C127.623 232.624 128.14 232.528 128.631 232.336ZM132.759 234V226H134.503V234H132.759ZM132.759 224.64V222.8H134.503V224.64H132.759ZM138.363 234H136.618V226H138.347V226.496C139.125 226.048 139.861 225.824 140.555 225.824C141.621 225.824 142.347 226.128 142.731 226.736C143.125 227.333 143.323 228.325 143.323 229.712V234H141.595V229.76C141.595 228.896 141.499 228.283 141.307 227.92C141.125 227.557 140.747 227.376 140.171 227.376C139.627 227.376 139.104 227.483 138.603 227.696L138.363 227.792V234ZM152.345 235.088C152.345 236.837 151.081 237.712 148.553 237.712C147.337 237.712 146.436 237.547 145.849 237.216C145.262 236.885 144.969 236.283 144.969 235.408C144.969 235.013 145.065 234.672 145.257 234.384C145.449 234.107 145.758 233.803 146.185 233.472C145.833 233.237 145.657 232.848 145.657 232.304C145.657 232.091 145.801 231.744 146.089 231.264L146.233 231.024C145.465 230.565 145.081 229.765 145.081 228.624C145.081 227.664 145.369 226.96 145.945 226.512C146.521 226.064 147.3 225.84 148.281 225.84C148.75 225.84 149.214 225.893 149.673 226L149.913 226.048L152.393 225.984V227.392L151.065 227.312C151.353 227.685 151.497 228.123 151.497 228.624C151.497 229.669 151.23 230.395 150.697 230.8C150.174 231.195 149.353 231.392 148.233 231.392C147.956 231.392 147.721 231.371 147.529 231.328C147.38 231.691 147.305 231.973 147.305 232.176C147.305 232.368 147.401 232.501 147.593 232.576C147.796 232.651 148.276 232.693 149.033 232.704C150.302 232.715 151.172 232.885 151.641 233.216C152.11 233.547 152.345 234.171 152.345 235.088ZM146.681 235.248C146.681 235.621 146.83 235.888 147.129 236.048C147.428 236.208 147.94 236.288 148.665 236.288C149.956 236.288 150.601 235.92 150.601 235.184C150.601 234.768 150.484 234.501 150.249 234.384C150.025 234.277 149.572 234.219 148.889 234.208L147.321 234.112C147.086 234.304 146.921 234.48 146.825 234.64C146.729 234.811 146.681 235.013 146.681 235.248ZM146.809 228.624C146.809 229.115 146.926 229.477 147.161 229.712C147.396 229.936 147.774 230.048 148.297 230.048C148.82 230.048 149.193 229.936 149.417 229.712C149.652 229.477 149.769 229.115 149.769 228.624C149.769 228.133 149.652 227.776 149.417 227.552C149.182 227.317 148.804 227.2 148.281 227.2C147.3 227.2 146.809 227.675 146.809 228.624ZM157.483 234V223.04H164.395V224.592H159.259V227.696H163.435V229.232H159.259V232.432H164.395V234H157.483ZM167.863 234H166.118V226H167.847V226.496C168.604 226.048 169.297 225.824 169.927 225.824C170.855 225.824 171.532 226.085 171.959 226.608C172.929 226.085 173.895 225.824 174.855 225.824C175.815 225.824 176.492 226.123 176.887 226.72C177.281 227.307 177.479 228.304 177.479 229.712V234H175.751V229.76C175.751 228.896 175.66 228.283 175.479 227.92C175.308 227.557 174.945 227.376 174.391 227.376C173.911 227.376 173.393 227.483 172.839 227.696L172.567 227.808C172.652 228.021 172.695 228.704 172.695 229.856V234H170.967V229.888C170.967 228.939 170.881 228.283 170.711 227.92C170.54 227.557 170.167 227.376 169.591 227.376C169.057 227.376 168.561 227.483 168.103 227.696L167.863 227.792V234ZM185.445 228.464V232.112C185.455 232.347 185.514 232.523 185.621 232.64C185.738 232.747 185.914 232.816 186.149 232.848L186.101 234.176C185.183 234.176 184.474 233.979 183.973 233.584C183.119 233.979 182.261 234.176 181.397 234.176C179.807 234.176 179.013 233.328 179.013 231.632C179.013 230.821 179.226 230.235 179.653 229.872C180.09 229.509 180.757 229.291 181.653 229.216L183.717 229.04V228.464C183.717 228.037 183.621 227.739 183.429 227.568C183.247 227.397 182.975 227.312 182.613 227.312C181.93 227.312 181.077 227.355 180.053 227.44L179.541 227.472L179.477 226.24C180.639 225.963 181.706 225.824 182.677 225.824C183.658 225.824 184.362 226.037 184.789 226.464C185.226 226.88 185.445 227.547 185.445 228.464ZM181.861 230.448C181.125 230.512 180.757 230.912 180.757 231.648C180.757 232.384 181.082 232.752 181.733 232.752C182.266 232.752 182.831 232.667 183.429 232.496L183.717 232.4V230.272L181.861 230.448ZM187.634 234V226H189.378V234H187.634ZM187.634 224.64V222.8H189.378V224.64H187.634ZM191.59 234V222.672H193.334V234H191.59ZM201.092 227.648C199.834 227.477 198.922 227.392 198.356 227.392C197.791 227.392 197.396 227.461 197.172 227.6C196.959 227.728 196.852 227.936 196.852 228.224C196.852 228.512 196.97 228.715 197.204 228.832C197.45 228.949 198.015 229.088 198.9 229.248C199.796 229.397 200.431 229.637 200.804 229.968C201.178 230.299 201.364 230.885 201.364 231.728C201.364 232.571 201.092 233.189 200.548 233.584C200.015 233.979 199.231 234.176 198.196 234.176C197.546 234.176 196.724 234.085 195.732 233.904L195.236 233.824L195.3 232.368C196.58 232.539 197.503 232.624 198.068 232.624C198.634 232.624 199.034 232.555 199.268 232.416C199.514 232.277 199.636 232.048 199.636 231.728C199.636 231.408 199.519 231.189 199.284 231.072C199.06 230.944 198.511 230.811 197.636 230.672C196.772 230.523 196.138 230.293 195.732 229.984C195.327 229.675 195.124 229.109 195.124 228.288C195.124 227.467 195.402 226.853 195.956 226.448C196.522 226.043 197.242 225.84 198.116 225.84C198.799 225.84 199.636 225.925 200.628 226.096L201.124 226.192L201.092 227.648Z" fill="#1D5183"/>
<defs>
<clipPath id="clip0_34:1657">
<rect width="251" height="177" fill="white"/>
</clipPath>
</defs>
</svg>
