<svg width="101" height="35" viewBox="0 0 101 35" fill="none" xmlns="http://www.w3.org/2000/svg">
<path d="M15.2188 20.4531H19.8906C19.7969 21.9844 19.375 23.3438 18.625 24.5312C17.8854 25.7188 16.849 26.6458 15.5156 27.3125C14.1927 27.9792 12.599 28.3125 10.7344 28.3125C9.27604 28.3125 7.96875 28.0625 6.8125 27.5625C5.65625 27.0521 4.66667 26.3229 3.84375 25.375C3.03125 24.4271 2.41146 23.2812 1.98438 21.9375C1.55729 20.5938 1.34375 19.0885 1.34375 17.4219V15.8438C1.34375 14.1771 1.5625 12.6719 2 11.3281C2.44792 9.97396 3.08333 8.82292 3.90625 7.875C4.73958 6.92708 5.73438 6.19792 6.89062 5.6875C8.04688 5.17708 9.33854 4.92188 10.7656 4.92188C12.6615 4.92188 14.2604 5.26562 15.5625 5.95312C16.875 6.64062 17.8906 7.58854 18.6094 8.79688C19.3385 10.0052 19.776 11.3802 19.9219 12.9219H15.2344C15.1823 12.0052 15 11.2292 14.6875 10.5938C14.375 9.94792 13.901 9.46354 13.2656 9.14062C12.6406 8.80729 11.8073 8.64062 10.7656 8.64062C9.98438 8.64062 9.30208 8.78646 8.71875 9.07812C8.13542 9.36979 7.64583 9.8125 7.25 10.4062C6.85417 11 6.55729 11.75 6.35938 12.6562C6.17188 13.5521 6.07812 14.6042 6.07812 15.8125V17.4219C6.07812 18.599 6.16667 19.6354 6.34375 20.5312C6.52083 21.4167 6.79167 22.1667 7.15625 22.7812C7.53125 23.3854 8.01042 23.8438 8.59375 24.1562C9.1875 24.4583 9.90104 24.6094 10.7344 24.6094C11.7135 24.6094 12.5208 24.4531 13.1562 24.1406C13.7917 23.8281 14.276 23.3646 14.6094 22.75C14.9531 22.1354 15.1562 21.3698 15.2188 20.4531ZM31.875 18.0156H26.0312L26 14.7969H30.9062C31.7708 14.7969 32.4792 14.6875 33.0312 14.4688C33.5833 14.2396 33.9948 13.9115 34.2656 13.4844C34.5469 13.0469 34.6875 12.5156 34.6875 11.8906C34.6875 11.1823 34.5521 10.6094 34.2812 10.1719C34.0208 9.73438 33.6094 9.41667 33.0469 9.21875C32.4948 9.02083 31.7812 8.92188 30.9062 8.92188H27.6562V28H22.9688V5.25H30.9062C32.2292 5.25 33.4115 5.375 34.4531 5.625C35.5052 5.875 36.3958 6.25521 37.125 6.76562C37.8542 7.27604 38.4115 7.92188 38.7969 8.70312C39.1823 9.47396 39.375 10.3906 39.375 11.4531C39.375 12.3906 39.1615 13.2552 38.7344 14.0469C38.3177 14.8385 37.6562 15.4844 36.75 15.9844C35.8542 16.4844 34.6823 16.7604 33.2344 16.8125L31.875 18.0156ZM31.6719 28H24.75L26.5781 24.3438H31.6719C32.4948 24.3438 33.1667 24.2135 33.6875 23.9531C34.2083 23.6823 34.5938 23.3177 34.8438 22.8594C35.0938 22.401 35.2188 21.875 35.2188 21.2812C35.2188 20.6146 35.1042 20.0365 34.875 19.5469C34.6562 19.0573 34.3021 18.6823 33.8125 18.4219C33.3229 18.151 32.6771 18.0156 31.875 18.0156H27.3594L27.3906 14.7969H33.0156L34.0938 16.0625C35.4792 16.0417 36.5938 16.2865 37.4375 16.7969C38.2917 17.2969 38.9115 17.9479 39.2969 18.75C39.6927 19.5521 39.8906 20.4115 39.8906 21.3281C39.8906 22.7865 39.5729 24.0156 38.9375 25.0156C38.3021 26.0052 37.3698 26.75 36.1406 27.25C34.9219 27.75 33.4323 28 31.6719 28ZM43.4062 5.25H51.8906C53.6302 5.25 55.125 5.51042 56.375 6.03125C57.6354 6.55208 58.6042 7.32292 59.2812 8.34375C59.9583 9.36458 60.2969 10.6198 60.2969 12.1094C60.2969 13.3281 60.0885 14.375 59.6719 15.25C59.2656 16.1146 58.6875 16.8385 57.9375 17.4219C57.1979 17.9948 56.3281 18.4531 55.3281 18.7969L53.8438 19.5781H46.4688L46.4375 15.9219H51.9219C52.7448 15.9219 53.4271 15.776 53.9688 15.4844C54.5104 15.1927 54.9167 14.7865 55.1875 14.2656C55.4688 13.7448 55.6094 13.1406 55.6094 12.4531C55.6094 11.724 55.474 11.0938 55.2031 10.5625C54.9323 10.0312 54.5208 9.625 53.9688 9.34375C53.4167 9.0625 52.724 8.92188 51.8906 8.92188H48.0938V28H43.4062V5.25ZM56.125 28L50.9375 17.8594L55.8906 17.8281L61.1406 27.7812V28H56.125ZM79.1719 24.3438V28H67.0625V24.3438H79.1719ZM68.5938 5.25V28H63.9062V5.25H68.5938ZM77.5938 14.5156V18.0781H67.0625V14.5156H77.5938ZM79.1562 5.25V8.92188H67.0625V5.25H79.1562ZM85.7656 5.25L90.0469 13.1875L94.3281 5.25H99.6875L93.0781 16.5312L99.8594 28H94.4531L90.0469 19.9062L85.6406 28H80.2031L87 16.5312L80.375 5.25H85.7656Z" fill="#F86327"/>
</svg>
