<svg width="368" height="246" viewBox="0 0 368 246" fill="none" xmlns="http://www.w3.org/2000/svg">
<rect x="116" y="88" width="252" height="70" rx="4" fill="#1975D2" fill-opacity="0.2"/>
<rect x="178" y="109" width="144" height="9" rx="4" fill="#1975D2" fill-opacity="0.2"/>
<rect x="178" y="127" width="115" height="9" rx="4" fill="#1975D2" fill-opacity="0.2"/>
<rect x="135" y="28" width="214" height="54" rx="4" fill="#6E8BA8" fill-opacity="0.2"/>
<rect x="135" width="214" height="22" rx="4" fill="#6E8BA8" fill-opacity="0.2"/>
<rect x="135" width="214" height="22" rx="4" fill="url(#paint0_linear)"/>
<rect x="349" y="246" width="214" height="22" rx="4" transform="rotate(180 349 246)" fill="#6E8BA8" fill-opacity="0.2"/>
<rect x="349" y="246" width="214" height="22" rx="4" transform="rotate(180 349 246)" fill="url(#paint1_linear)"/>
<rect x="135" y="164" width="214" height="54" rx="4" fill="#6E8BA8" fill-opacity="0.2"/>
<circle cx="148" cy="123" r="18" fill="#1975D2" fill-opacity="0.26"/>
<path d="M3 66C38.6667 58.6667 73.4 61.4 53 87C27.5 119 47 129 99.5 125" stroke="#CDE0F6" stroke-width="2"/>
<path d="M9 58L2 66L11 71" stroke="#CDE0F6" stroke-width="2"/>
<defs>
<linearGradient id="paint0_linear" x1="242" y1="0" x2="242" y2="25.5" gradientUnits="userSpaceOnUse">
<stop stop-color="#FAFBFF"/>
<stop offset="1" stop-color="white" stop-opacity="0"/>
</linearGradient>
<linearGradient id="paint1_linear" x1="456" y1="246" x2="456" y2="271.5" gradientUnits="userSpaceOnUse">
<stop stop-color="#FAFBFF"/>
<stop offset="1" stop-color="white" stop-opacity="0"/>
</linearGradient>
</defs>
</svg>
