<svg version="1.1" xmlns="http://www.w3.org/2000/svg" xmlns:xlink="http://www.w3.org/1999/xlink" role="group" style="width: 100%; height: 100%; overflow: visible;"><defs><clipPath id="id-48"><rect width="295" height="150"/></clipPath><linearGradient id="gradient-id-71" x1="1%" x2="99%" y1="59%" y2="41%"><stop stop-color="#474758" offset="0"/><stop stop-color="#474758" stop-opacity="1" offset="0.75"/><stop stop-color="#3cabff" stop-opacity="1" offset="0.755"/></linearGradient><filter id="filter-id-80" filterUnits="objectBoundingBox" width="200%" height="200%" x="-50%" y="-50%"/><filter id="filter-id-101" filterUnits="objectBoundingBox" width="200%" height="200%" x="-50%" y="-50%"/><clipPath id="id-139"><path d=" M0,-9.6  L0,-48  a48,48,0,0,1,33.9411,81.9411 a48,48,0,0,1,-81.9411,-33.9411 L-9.6,0  a9.600000000000001,9.600000000000001,0,0,0,16.3882,6.7882 a9.600000000000001,9.600000000000001,0,0,0,-6.7882,-16.3882 L0,-9.6 "/></clipPath><clipPath id="id-160"><path d=" M0,-9.6  L0,-48  a48,48,0,0,1,33.9411,81.9411 a48,48,0,0,1,-81.9411,-33.9411 L-9.6,0  a9.600000000000001,9.600000000000001,0,0,0,16.3882,6.7882 a9.600000000000001,9.600000000000001,0,0,0,-6.7882,-16.3882 L0,-9.6 "/></clipPath><clipPath id="id-438"><path d=" M0,-9.6  L0,-48  a48,48,0,0,1,33.9411,81.9411 a48,48,0,0,1,-81.9411,-33.9411 L-9.6,0  a9.600000000000001,9.600000000000001,0,0,0,16.3882,6.7882 a9.600000000000001,9.600000000000001,0,0,0,-6.7882,-16.3882 L0,-9.6 " r="0"/></clipPath><filter id="filter-id-53" filterUnits="objectBoundingBox" width="200%" height="200%" x="-50%" y="-50%"><feGaussianBlur result="blurOut" in="SourceGraphic" stdDeviation="1.5"/><feOffset result="offsetBlur" dx="1" dy="1"/><feFlood flood-color="#000000" flood-opacity="0.5"/><feComposite in2="offsetBlur" operator="in"/><feMerge><feMergeNode/><feMergeNode in="SourceGraphic"/></feMerge></filter><filter id="filter-id-68" filterUnits="objectBoundingBox" width="120%" height="120%" x="-10%" y="-10%"><feColorMatrix type="saturate" values="0"/></filter><filter id="filter-id-144" filterUnits="objectBoundingBox" width="200%" height="200%" x="-50%" y="-50%"><feGaussianBlur result="blurOut" in="SourceGraphic" stdDeviation="1.5"/><feOffset result="offsetBlur" dx="1" dy="1"/><feFlood flood-color="#000000" flood-opacity="0.5"/><feComposite in2="offsetBlur" operator="in"/><feMerge><feMergeNode/><feMergeNode in="SourceGraphic"/></feMerge></filter><filter id="filter-id-165" filterUnits="objectBoundingBox" width="200%" height="200%" x="-50%" y="-50%"><feGaussianBlur result="blurOut" in="SourceGraphic" stdDeviation="1.5"/><feOffset result="offsetBlur" dx="1" dy="1"/><feFlood flood-color="#000000" flood-opacity="0.5"/><feComposite in2="offsetBlur" operator="in"/><feMerge><feMergeNode/><feMergeNode in="SourceGraphic"/></feMerge></filter></defs><g><g fill="#ffffff" fill-opacity="0"><rect width="295" height="150"/></g><g><g role="region" clip-path="url(&quot;#id-48&quot;)" opacity="1" aria-label="Chart"><g transform="translate(15,15)"><g><g><g><g><g><g><g style="touch-action: none; user-select: none; -webkit-user-drag: none;" transform="translate(0,0)"><g fill="#ffffff" fill-opacity="0" transform="translate(0,0)"><rect width="265" height="120"/></g><g><g transform="translate(132.5,60)"><g><g opacity="0"/><g><g/></g><g aria-hidden="true"><g><g fill="#000000" transform="translate(0,-19.2) rotate(90)"><g display="none"/></g><g><g><g fill="#000000" aria-label="L" fill-opacity="0" opacity="0" stroke-opacity="0" style="pointer-events: none;" transform="translate(0,-28.8)"><g transform="translate(-70.5,-8.5)" style="user-select: none;"><text x="0" y="16.80000114440918" dy="-4.536"><tspan>Resume Chatter Rate</tspan></text></g></g><g><g><g stroke="#000000" stroke-opacity="0" fill="none"><path d=" M0,-9.6  a9.6,9.6,0,0,1,6.7882,16.3882 a9.6,9.6,0,0,1,-16.3882,-6.7882" transform="translate(-0.5,-0.5)"/></g><g stroke="#000000" stroke-opacity="0" fill="none"><path d=" M0,-28.8  a28.8,28.8,0,0,1,20.3647,49.1647 a28.8,28.8,0,0,1,-49.1647,-20.3647" transform="translate(-0.5,-0.5)"/></g><g stroke="#000000" stroke-opacity="0" fill="none"><path d=" M0,-48  a48,48,0,0,1,33.9411,81.9411 a48,48,0,0,1,-81.9411,-33.9411" transform="translate(-0.5,-0.5)"/></g></g></g><g><g/></g><g fill="#000000" transform="translate(0,-19.2)" opacity="0" visibility="hidden" aria-label="Job Chatter Rate" aria-hidden="true"><g transform="translate(-56.5,-8.5)" style="user-select: none;"><text x="0" y="16.80000114440918" dy="-4.536"><tspan>Job Chatter Rate</tspan></text></g></g><g fill="#000000" transform="translate(0,-38.4)" opacity="0" visibility="hidden" aria-label="Resume Chatter Rate" aria-hidden="true"><g transform="translate(-70.5,-8.5)" style="user-select: none;"><text x="0" y="16.80000114440918" dy="-4.536"><tspan>Resume Chatter Rate</tspan></text></g></g><g fill="#000000" display="none" transform="translate(0,-57.6)" opacity="0" visibility="hidden" aria-hidden="true"><g transform="translate(0,0)" display="none"/></g></g></g><g stroke="#000000" stroke-opacity="0.15" fill="none" display="none"><path transform="translate(-0.5,-0.5)"/></g><g stroke="#000000" stroke-opacity="0" fill="none" style="pointer-events: none;"><path d=" M0,-9.6  L0,-48 " transform="translate(-0.5,-0.5)"/></g></g></g><g><g/></g><g aria-hidden="true"><g><g><g><g><g><g stroke="#000000" stroke-opacity="0" fill="none" display="none"><path d=" M-9.1301,2.9666  L-45.6507,14.8328 "/></g><g stroke="#000000" stroke-opacity="0" fill="none" display="none"><path d=" M-7.7666,-5.6427  L-38.8328,-28.2137 "/></g><g stroke="#000000" stroke-opacity="0" fill="none"><path d=" M0,-9.6  L0,-48 "/></g><g stroke="#000000" stroke-opacity="0" fill="none"><path d=" M7.7666,-5.6427  L38.8328,-28.2137 "/></g><g stroke="#000000" stroke-opacity="0" fill="none"><path d=" M9.1301,2.9666  L45.6507,14.8328 "/></g><g stroke="#000000" stroke-opacity="0" fill="none"><path d=" M2.9666,9.1301  L14.8328,45.6507 "/></g><g stroke="#000000" stroke-opacity="0" fill="none"><path d=" M-5.6427,7.7666  L-28.2137,38.8328 "/></g><g stroke="#000000" stroke-opacity="0" fill="none"><path d=" M-9.6,0  L-48,0 "/></g><g stroke="#000000" stroke-opacity="0" fill="none" display="none"><path d=" M-5.6427,-7.7666  L-28.2137,-38.8328 "/></g></g></g><g fill="#000000" aria-label="L" fill-opacity="0" opacity="0" stroke-opacity="0" style="pointer-events: none;" transform="translate(0,-71.5)"><g style="user-select: none;" transform="translate(-4,-8.5)"><text x="0" y="16.80000114440918" dy="-4.536"><tspan>L</tspan></text></g></g><g fill="#000000" opacity="0" visibility="hidden" aria-label="-40%" aria-hidden="true" transform="translate(-77.036,22.095)" display="none"><g transform="translate(-18,-8.5)" style="user-select: none;"><text x="0" y="16.80000114440918" dy="-4.536"><tspan>-40%</tspan></text></g></g><g fill="#000000" opacity="0" visibility="hidden" aria-label="-20%" aria-hidden="true" transform="translate(-65.126,-42.026)" display="none"><g transform="translate(-17.5,-8.5)" style="user-select: none;"><text x="0" y="16.80000114440918" dy="-4.536"><tspan>-20%</tspan></text></g></g><g fill="#000000" opacity="0" visibility="hidden" aria-label="0%" aria-hidden="true" transform="translate(0,-71.5)"><g transform="translate(-10.5,-8.5)" style="user-select: none;"><text x="0" y="16.80000114440918" dy="-4.536"><tspan>0%</tspan></text></g></g><g fill="#000000" opacity="0" visibility="hidden" aria-label="20%" aria-hidden="true" transform="translate(62.699000000000005,-42.026)"><g transform="translate(-14.5,-8.5)" style="user-select: none;"><text x="0" y="16.80000114440918" dy="-4.536"><tspan>20%</tspan></text></g></g><g fill="#000000" opacity="0" visibility="hidden" aria-label="40%" aria-hidden="true" transform="translate(74.183,22.095)"><g transform="translate(-15,-8.5)" style="user-select: none;"><text x="0" y="16.80000114440918" dy="-4.536"><tspan>40%</tspan></text></g></g><g fill="#000000" opacity="0" visibility="hidden" aria-label="60%" aria-hidden="true" transform="translate(23.948999999999998,68.001)"><g transform="translate(-14.5,-8.5)" style="user-select: none;"><text x="0" y="16.80000114440918" dy="-4.536"><tspan>60%</tspan></text></g></g><g fill="#000000" opacity="0" visibility="hidden" aria-label="80%" aria-hidden="true" transform="translate(-45.553,57.845000000000006)"><g transform="translate(-14.5,-8.5)" style="user-select: none;"><text x="0" y="16.80000114440918" dy="-4.536"><tspan>80%</tspan></text></g></g><g fill="#000000" opacity="0" visibility="hidden" aria-label="100%" aria-hidden="true" transform="translate(-81,0)"><g transform="translate(-18,-8.5)" style="user-select: none;"><text x="0" y="16.80000114440918" dy="-4.536"><tspan>100%</tspan></text></g></g><g fill="#000000" opacity="0" visibility="hidden" aria-label="120%" aria-hidden="true" transform="translate(-47.61,-57.845000000000006)" display="none"><g transform="translate(-18,-8.5)" style="user-select: none;"><text x="0" y="16.80000114440918" dy="-4.536"><tspan>120%</tspan></text></g></g><g><g/></g></g></g><g fill="#000000"><g display="none"/></g><g stroke="#000000" stroke-opacity="0.15" fill="none"><path transform="translate(-0.5,-0.5)"/></g><g stroke="#000000" stroke-opacity="0" fill="none" style="pointer-events: none;"><path d=" M0,-48  a48,48,0,0,1,33.9411,81.9411 a48,48,0,0,1,-81.9411,-33.9411" transform="translate(-0.5,-0.5)"/></g></g></g><g><g><g role="group" stroke-opacity="0" fill-opacity="1" stroke="#67b7dc" aria-label="Series"><g><g clip-path="url(&quot;#id-139&quot;)"><g><g><g><g stroke-opacity="1" fill="#000000" fill-opacity="0.08" stroke-width="0" stroke="#67b7dc"><g><g><g><g><path d=" M0,-15.9009  L0,-19.2  A7.7,7.7,0,0,1,7.6207,-25.798 a26.9,26.9,0,0,1,11.4004,44.8191 a26.9,26.9,0,0,1,-44.8191,-11.4004 A7.7,7.7,0,0,1,-19.2,0 L-15.9009,0  A5.24298351365047,5.24298351365047,0,0,1,-10.6579,4.3196 a11.5,11.5,0,0,0,18.7896,3.8121 a11.5,11.5,0,0,0,-3.8121,-18.7896 A5.24298351365047,5.24298351365047,0,0,1,0,-15.9009 L0,-15.9009 "/></g><g/><g/></g></g></g></g><g stroke-opacity="1" fill="#000000" fill-opacity="0.08" stroke-width="0" stroke="#67b7dc"><g><g><g><g><path d=" M0,-38.4  L0,-38.4  A7.7,7.7,0,0,1,7.6731,-45.4569 a46.1,46.1,0,0,1,24.9245,78.0546 a46.1,46.1,0,0,1,-78.0545,-24.9246 A7.7,7.7,0,0,1,-38.4,0 L-38.4,0  A8.66563517897,8.66563517897,0,0,1,-29.7344,7.6392 a30.7,30.7,0,0,0,51.4425,14.069 a30.7,30.7,0,0,0,-14.0689,-51.4426 A8.66563517897,8.66563517897,0,0,1,0,-38.4 L0,-38.4 "/></g><g/><g/></g></g></g></g></g></g></g></g><g/></g></g><g role="group" stroke-opacity="0" fill-opacity="1" stroke="#6794dc" aria-label="Series"><g><g clip-path="url(&quot;#id-160&quot;)"><g><g><g/></g></g></g><g/></g></g></g></g><g clip-path="url(&quot;#id-438&quot;)"><g><g fill="#67b7dc" stroke="#67b7dc"><g/></g><g fill="#6794dc" stroke="#6794dc"><g/></g></g></g><g opacity="0" visibility="hidden" aria-hidden="true" style="touch-action: none; user-select: none; -webkit-user-drag: none;"><g><g fill-opacity="0.2" fill="#000000" visibility="hidden" style="pointer-events: none;"><path/></g><g stroke="#000000" fill="none" stroke-dasharray="3,3" stroke-opacity="0.4" style="pointer-events: none;"><path d=" M0,0  L48,0 "/></g><g stroke="#000000" fill="none" stroke-dasharray="3,3" stroke-opacity="0.4" style="pointer-events: none;"><path d=" M0,0  a0,0,0,0,1,0,0 a0,0,0,0,1,0,0"/></g></g></g></g></g><g><g/></g><g role="button" focusable="true" tabindex="0" opacity="0" visibility="hidden" aria-hidden="true" transform="translate(225,-3)" aria-labelledby="id-37-title"><g fill="#6794dc" stroke="#ffffff" fill-opacity="1" stroke-opacity="0" transform="translate(0,8)"><path d="M17,0 L18,0 a17,17 0 0 1 17,17 L35,17 a17,17 0 0 1 -17,17 L17,34 a17,17 0 0 1 -17,-17 L0,17 a17,17 0 0 1 17,-17 Z"/></g><g transform="translate(9,9)"><g stroke="#ffffff" style="pointer-events: none;" transform="translate(0,8)"><path d=" M0,0  L11,0 " transform="translate(2.5,7.5)"/></g><g fill="#000000" style="pointer-events: none;" transform="translate(17,8)"><g display="none"/></g></g><title id="id-37-title">Zoom Out</title></g></g></g><g><g/></g><g transform="translate(265,0)"><g/></g></g></g><g><g/></g><g transform="translate(0,120)"><g/></g></g></g></g></g></g></g><g><g><g role="tooltip" visibility="hidden" opacity="0"><g fill="#ffffff" fill-opacity="0.9" stroke-width="1" stroke-opacity="1" stroke="#ffffff" filter="url(&quot;#filter-id-53&quot;)" style="pointer-events: none;" transform="translate(0,6)"><path d="M3,0 L3,0 L0,-6 L13,0 L21,0 a3,3 0 0 1 3,3 L24,8 a3,3 0 0 1 -3,3 L3,11 a3,3 0 0 1 -3,-3 L0,3 a3,3 0 0 1 3,-3"/></g><g><g fill="#ffffff" style="pointer-events: none;" transform="translate(12,6)"><g transform="translate(0,7)" display="none"/></g></g></g><g visibility="hidden" display="none" style="pointer-events: none;"><g fill="#ffffff" opacity="1"><rect width="295" height="150"/></g><g><g transform="translate(147.5,75)"><g><g stroke-opacity="1" fill="#f3f3f3" fill-opacity="0.8"><g><g><path d=" M53,0  a53,53,0,0,1,-106,0 a53,53,0,0,1,106,0 M42,0  a42,42,0,0,0,-84,0 a42,42,0,0,0,84,0 L42,0 "/></g></g></g><g stroke-opacity="1" fill="#000000" fill-opacity="0.2"><g><g><path d=" M50,0  a50,50,0,0,1,-100,0 a50,50,0,0,1,100,0 M45,0  a45,45,0,0,0,-90,0 a45,45,0,0,0,90,0 L45,0 "/></g></g></g><g fill="#000000" fill-opacity="0.4"><g transform="translate(-18,-8.5)" style="user-select: none;"><text x="18px" y="16.80000114440918" dy="-4.536" text-anchor="middle"><tspan>100%</tspan></text></g></g></g></g></g></g><g opacity="0.3" aria-labelledby="id-68-title" filter="url(&quot;#filter-id-68&quot;)" style="cursor: pointer;" transform="translate(0,129)"><g fill="#ffffff" opacity="0"><rect width="66" height="21"/></g><g><g shape-rendering="auto" fill="none" stroke-opacity="1" stroke-width="1.7999999999999998" stroke="#3cabff"><path d=" M15,15  C17.4001,15 22.7998,15.0001 27,15 C31.2002,14.9999 33.2999,6 36,6 C38.7001,6 38.6999,10.5 40.5,10.5 C42.3001,10.5 42.2999,6 45,6 C47.7001,6 50.9999,14.9999 54,15 C57.0002,15.0001 58.7999,15 60,15"/></g><g shape-rendering="auto" fill="none" stroke-opacity="1" stroke-width="1.7999999999999998" stroke="url(&quot;#gradient-id-71&quot;)"><path d=" M6,15  C8.2501,15 9.7498,15.0001 15,15 C20.2502,14.9999 20.7748,3.6 27,3.6 C33.2252,3.6 33.8998,14.9999 39.9,15 C45.9002,15.0001 45.9748,15 51,15 C56.0252,15 57.7499,15 60,15"/></g></g><title id="id-68-title">Chart created using amCharts library</title></g><g role="tooltip" visibility="hidden" opacity="0"><g fill="#000000" fill-opacity="1" stroke-width="1" stroke-opacity="1" stroke="#000000" style="pointer-events: none;" transform="translate(5,-5)"><path d="M0,0 L20,0 a0,0 0 0 1 0,0 L20,10 a0,0 0 0 1 -0,0 L0,10 a0,0 0 0 1 -0,-0 L0,10 L0,10 L-5,5 L0,0 L0,0 a0,0 0 0 1 0,-0"/></g><g><g fill="#ffffff" style="pointer-events: none;" transform="translate(15,-5)"><g transform="translate(0,5)" display="none"/></g></g></g><g role="tooltip" visibility="hidden" opacity="0" transform="translate(104.71351375007342,53.244159533935644)"><g fill="#000000" fill-opacity="1" stroke-width="1" stroke-opacity="1" stroke="#000000" style="pointer-events: none;" transform="translate(-10,-15)"><path d="M0,0 L20,0 a0,0 0 0 1 0,0 L20,10 a0,0 0 0 1 -0,0 L20,10 L15,10 L10,15 L5,10 L0,10 a0,0 0 0 1 -0,-0 L0,0 a0,0 0 0 1 0,-0"/></g><g><g fill="#ffffff" style="pointer-events: none;" transform="translate(0,-15)"><g transform="translate(0,5)" display="none"/></g></g></g><g role="tooltip" visibility="hidden" opacity="0"><g fill="#ffffff" fill-opacity="0.9" stroke-width="1" stroke-opacity="1" stroke="#ffffff" filter="url(&quot;#filter-id-144&quot;)" style="pointer-events: none;" transform="translate(6,0)"><path d="M3,0 L21,0 a3,3 0 0 1 3,3 L24,8 a3,3 0 0 1 -3,3 L3,11 a3,3 0 0 1 -3,-3 L0,8 L0,8 L-6,0 L0,-2 L0,3 a3,3 0 0 1 3,-3"/></g><g><g fill="#ffffff" style="pointer-events: none;" transform="translate(18,0)"><g transform="translate(0,7)" display="none"/></g></g></g><g role="tooltip" visibility="hidden" opacity="0"><g fill="#ffffff" fill-opacity="0.9" stroke-width="1" stroke-opacity="1" stroke="#ffffff" filter="url(&quot;#filter-id-165&quot;)" style="pointer-events: none;" transform="translate(6,0)"><path d="M3,0 L21,0 a3,3 0 0 1 3,3 L24,8 a3,3 0 0 1 -3,3 L3,11 a3,3 0 0 1 -3,-3 L0,8 L0,8 L-6,0 L0,-2 L0,3 a3,3 0 0 1 3,-3"/></g><g><g fill="#ffffff" style="pointer-events: none;" transform="translate(18,0)"><g transform="translate(0,7)" display="none"/></g></g></g></g></g></g></g></svg>