<svg xmlns="http://www.w3.org/2000/svg" viewBox="0 0 20 20" fill="currentColor" aria-hidden="true" class="transition h-6 w-6  duration-75 group-hover:text-cbrex-light-neutral-700 dark:text-cbrex-light-neutral-400 dark:group-hover:text-white  text-cbrex-light-neutral-400"><path d="M4 4a2 2 0 00-2 2v1h16V6a2 2 0 00-2-2H4z"/><path fill-rule="evenodd" d="M18 9H2v5a2 2 0 002 2h12a2 2 0 002-2V9zM4 13a1 1 0 011-1h1a1 1 0 110 2H5a1 1 0 01-1-1zm5-1a1 1 0 100 2h1a1 1 0 100-2H9z" clip-rule="evenodd"/></svg>